<svg xmlns="http://www.w3.org/2000/svg" viewBox="0 0 400 400" width="400" height="400">
  <rect width="400" height="400" rx="88" fill="#00C6E0"/>
  <!-- streaks -->
  <line x1="200" y1="200" x2="237" y2="26"  stroke="#fff" stroke-width="14" stroke-linecap="round"/>
  <line x1="200" y1="200" x2="295" y2="111" stroke="#fff" stroke-width="10" stroke-linecap="round"/>
  <line x1="200" y1="200" x2="368" y2="188" stroke="#fff" stroke-width="16" stroke-linecap="round"/>
  <line x1="200" y1="200" x2="276" y2="259" stroke="#fff" stroke-width="12" stroke-linecap="round"/>
  <line x1="200" y1="200" x2="244" y2="352" stroke="#fff" stroke-width="13" stroke-linecap="round"/>
  <line x1="200" y1="200" x2="143" y2="308" stroke="#fff" stroke-width="10" stroke-linecap="round"/>
  <line x1="200" y1="200" x2="37"  y2="272" stroke="#fff" stroke-width="17" stroke-linecap="round"/>
  <line x1="200" y1="200" x2="104" y2="161" stroke="#fff" stroke-width="11" stroke-linecap="round"/>
  <line x1="200" y1="200" x2="117" y2="77"  stroke="#fff" stroke-width="14" stroke-linecap="round"/>
  <!-- streak tip circles -->
  <circle cx="237" cy="26"  r="7.7"  fill="#fff"/>
  <circle cx="295" cy="111" r="5.5"  fill="#fff"/>
  <circle cx="368" cy="188" r="8.8"  fill="#fff"/>
  <circle cx="276" cy="259" r="6.6"  fill="#fff"/>
  <circle cx="244" cy="352" r="7.15" fill="#fff"/>
  <circle cx="143" cy="308" r="5.5"  fill="#fff"/>
  <circle cx="37"  cy="272" r="9.35" fill="#fff"/>
  <circle cx="104" cy="161" r="6.05" fill="#fff"/>
  <circle cx="117" cy="77"  r="7.7"  fill="#fff"/>
  <!-- sparks -->
  <circle cx="88"  cy="100" r="7" fill="#fff"/>
  <circle cx="310" cy="88"  r="5" fill="#fff"/>
  <circle cx="340" cy="200" r="6" fill="#fff"/>
  <circle cx="302" cy="322" r="7" fill="#fff"/>
  <circle cx="180" cy="348" r="5" fill="#fff"/>
  <circle cx="62"  cy="286" r="7" fill="#fff"/>
  <circle cx="70"  cy="178" r="4" fill="#fff"/>
  <circle cx="240" cy="60"  r="4" fill="#fff"/>
  <circle cx="148" cy="70"  r="5" fill="#fff"/>
  <!-- center dot -->
  <circle cx="200" cy="200" r="22" fill="#fff"/>
</svg>
